<svg width="97" height="19" viewBox="0 0 97 19" fill="none" xmlns="http://www.w3.org/2000/svg">
<g clip-path="url(#clip0_1_841)">
<path d="M13.808 0L8.6175 15.1194L3.45385 0H0.226562L6.68113 18.5677H10.5539L17.0353 0H13.808Z" fill="#393737"/>
<path d="M41.9749 18.5677H45.2022L37.9139 0H34.0412L26.7529 18.5677H29.9802L31.8897 13.581H40.0655L41.9749 18.5677ZM32.9923 10.7428L35.9776 2.97084L38.9628 10.7428H32.9923Z" fill="#393737"/>
<path d="M61.589 0H55V18.5677H61.589C67.0485 18.5677 71.2171 14.642 71.2171 9.28386C71.2171 3.89922 67.0754 0 61.589 0ZM61.6159 15.703H58.039V2.86474H61.6159C65.4079 2.86474 68.178 5.51727 68.178 9.28386C68.178 13.077 65.4079 15.703 61.6159 15.703Z" fill="#393737"/>
<path d="M96.4881 2.86474V0H84.1975V18.5677H96.4881V15.703H87.2365V10.5306H95.8157V7.66582H87.2365V2.86474H96.4881Z" fill="#393737"/>
</g>
<defs>
<clipPath id="clip0_1_841">
<rect width="97" height="19" fill="white"/>
</clipPath>
</defs>
</svg>
