<svg width="1077" height="750" viewBox="0 0 1077 750" fill="none" xmlns="http://www.w3.org/2000/svg">
<g opacity="0.2">
<path d="M819.746 -55.9538H1067.12C1068.78 -55.9538 1070.12 -54.6095 1070.12 -52.9538V489.791C1070.12 491.447 1068.78 492.791 1067.12 492.791H819.746C818.09 492.791 816.746 491.447 816.746 489.791V-52.9538C816.746 -54.6095 818.09 -55.9538 819.746 -55.9538Z" fill="#FFEA30"/>
</g>
<path d="M1065.14 497.747C1070.67 497.747 1075.14 493.27 1075.14 487.747V420.012H1065.14V487.747H991.765V497.747H1065.14ZM811.136 487.748C811.136 493.271 815.613 497.748 821.136 497.748H888.871V487.748H821.136V397.434H811.136V487.748Z" fill="#FFEA30"/>
<g opacity="0.2">
<path d="M1067.59 1070.62H820.212C818.557 1070.62 817.212 1069.28 817.212 1067.62V524.875C817.212 523.22 818.557 521.875 820.212 521.875H1067.59C1069.24 521.875 1070.59 523.22 1070.59 524.875V1067.62C1070.59 1069.28 1069.24 1070.62 1067.59 1070.62Z" fill="#FFEA30"/>
</g>
<path d="M822.189 516.919C816.666 516.919 812.189 521.396 812.189 526.919V594.654H822.189V526.919H895.568V516.919H822.189ZM1076.2 526.918C1076.2 521.395 1071.72 516.918 1066.2 516.918H998.462V526.918H1066.2V617.232H1076.2V526.918Z" fill="#FFEA30"/>
<g opacity="0.999991">
<path d="M1004.39 519.387H1067.97V596.955H1065.97V521.387H1004.39V519.387ZM816.489 596.29V520.719H882.072V522.719H818.489V596.29H816.489Z" fill="#FFEA30"/>
</g>
<path d="M133.754 381.115C126.987 382.789 115.457 384.804 102.929 385.392C90.3837 385.981 76.9427 385.132 66.2937 381.149L65.5927 383.022C76.6157 387.144 90.3727 387.983 103.022 387.39C115.688 386.796 127.348 384.759 134.234 383.056L133.754 381.115ZM31.8517 364.066C31.6127 362.634 31.5777 360.45 32.3447 358.604C32.7357 357.664 33.3507 356.773 34.2887 356.143C35.2337 355.508 36.4257 355.192 37.8677 355.268C39.8617 355.373 41.5827 356.721 43.0457 358.342C44.5337 359.991 45.9407 362.134 47.2667 364.186C47.3547 364.322 47.4427 364.458 47.5297 364.593C48.7807 366.531 49.9587 368.357 51.1267 369.737C51.7477 370.471 52.3327 371.037 52.8827 371.414C53.4307 371.789 53.8917 371.942 54.2907 371.942C57.3707 371.942 60.6927 374.085 63.1437 377.036C65.6217 380.02 67.4047 384.052 67.2257 388.176L65.2277 388.089C65.3807 384.58 63.8497 381.018 61.6047 378.314C59.3327 375.578 56.5207 373.942 54.2907 373.942C53.3627 373.942 52.5107 373.584 51.7517 373.064C50.9957 372.546 50.2797 371.832 49.5997 371.029C48.3447 369.545 47.0977 367.612 45.8717 365.712C45.7767 365.565 45.6817 365.418 45.5867 365.271C44.2457 363.196 42.9227 361.191 41.5607 359.682C40.1737 358.145 38.9227 357.326 37.7627 357.265C36.6817 357.208 35.9337 357.446 35.4037 357.803C34.8657 358.164 34.4697 358.702 34.1917 359.372C33.6207 360.746 33.6207 362.512 33.8247 363.736L31.8517 364.066ZM167.116 364.066C167.355 362.634 167.39 360.45 166.623 358.604C166.232 357.664 165.617 356.773 164.679 356.143C163.734 355.508 162.542 355.192 161.1 355.268C159.106 355.373 157.385 356.721 155.922 358.342C154.434 359.991 153.026 362.134 151.7 364.186C151.612 364.322 151.524 364.458 151.437 364.593C150.186 366.531 149.008 368.357 147.84 369.737C147.219 370.471 146.635 371.037 146.085 371.414C145.537 371.789 145.075 371.942 144.676 371.942C141.596 371.942 138.275 374.085 135.824 377.036C133.346 380.02 131.563 384.052 131.742 388.176L133.74 388.089C133.587 384.58 135.117 381.018 137.362 378.314C139.634 375.578 142.446 373.942 144.676 373.942C145.604 373.942 146.456 373.584 147.215 373.064C147.971 372.546 148.687 371.832 149.367 371.029C150.622 369.545 151.87 367.612 153.096 365.712C153.191 365.565 153.285 365.418 153.38 365.271C154.721 363.196 156.044 361.191 157.406 359.682C158.793 358.145 160.045 357.326 161.205 357.265C162.286 357.208 163.033 357.446 163.563 357.803C164.101 358.164 164.498 358.702 164.776 359.372C165.347 360.746 165.347 362.512 165.143 363.736L167.116 364.066ZM44.0957 74.785C44.0957 75.879 45.1297 76.715 46.2337 76.478C58.3557 73.871 81.2787 70.375 100.14 69.668L100.215 71.666C81.4917 72.367 58.6867 75.847 46.6547 78.434C44.3397 78.932 42.0957 77.188 42.0957 74.785V16.109C42.0957 14.467 43.1787 13.006 44.7837 12.571C55.8997 9.55701 79.9627 4.44101 101.586 4.44101V6.44101C80.2107 6.44101 56.3397 11.51 45.3077 14.501C44.5947 14.694 44.0957 15.349 44.0957 16.109V74.785ZM155.496 74.785C155.496 75.879 154.462 76.715 153.358 76.478C141.236 73.871 118.314 70.375 99.4527 69.668L99.3777 71.666C118.101 72.367 140.906 75.847 152.938 78.434C155.253 78.932 157.496 77.188 157.496 74.785V16.109C157.496 14.467 156.413 13.006 154.808 12.571C143.692 9.55701 119.63 4.44101 98.0067 4.44101V6.44101C119.382 6.44101 143.253 11.51 154.285 14.501C154.998 14.694 155.496 15.349 155.496 16.109V74.785ZM29.7617 164.429C28.6797 164.783 27.5667 163.977 27.5667 162.838V71.395C27.5667 69.824 29.6547 69.022 30.5847 70.509C34.4217 76.648 40.6857 89.603 42.2917 104.414L42.2977 104.468V159.117C42.2977 159.841 41.8317 160.483 41.1437 160.708L29.7617 164.429ZM29.5667 72.685V162.388L40.2977 158.88V104.576C38.8157 91.015 33.3137 79.015 29.5667 72.685ZM30.2037 273.527C29.7737 275.483 26.8947 275.17 26.8947 273.167V178.733C26.8947 177.374 27.6397 176.125 28.8357 175.48L37.3447 170.889C39.8077 169.56 42.7967 171.345 42.7967 174.143V215.794C42.7967 216.061 42.7677 216.327 42.7107 216.587L30.2037 273.527ZM28.8947 178.733V270.165L40.7577 216.158C40.7837 216.038 40.7967 215.916 40.7967 215.794V174.143C40.7967 172.859 39.4247 172.039 38.2947 172.649L29.7857 177.24C29.2367 177.536 28.8947 178.109 28.8947 178.733ZM29.2147 94.852L41.8007 103.618L40.6567 105.259L28.0717 96.493L29.2147 94.852ZM169.844 164.431C170.926 164.785 172.038 163.979 172.038 162.84V71.397C172.038 69.826 169.95 69.024 169.02 70.511C165.183 76.65 158.92 89.605 157.314 104.416L157.308 104.47V159.119C157.308 159.843 157.774 160.485 158.462 160.71L169.844 164.431ZM170.038 72.687V162.391L159.308 158.883V104.579C160.79 91.018 166.291 79.017 170.038 72.687ZM169.396 273.529C169.826 275.485 172.705 275.173 172.705 273.17V178.736C172.705 177.377 171.96 176.127 170.764 175.482L162.254 170.892C159.791 169.563 156.803 171.347 156.803 174.145V215.797C156.803 216.064 156.832 216.33 156.889 216.59L169.396 273.529ZM170.705 178.736V270.168L158.842 216.161C158.816 216.041 158.803 215.919 158.803 215.797V174.145C158.803 172.861 160.175 172.042 161.305 172.652L169.814 177.242C170.363 177.538 170.705 178.112 170.705 178.736ZM170.384 94.856L157.799 103.622L158.942 105.263L171.527 96.497L170.384 94.856ZM42.7027 306.087C54.2197 310.964 75.1847 317.345 99.6867 317.635L99.6637 319.635C74.8497 319.341 53.6267 312.885 41.9227 307.929C37.5117 306.061 34.7487 301.85 34.2137 297.186L32.9547 286.214C32.7907 284.789 32.8397 283.348 33.0997 281.937L41.3577 237.143C42.6787 229.975 49.1217 224.906 56.3997 225.308L99.7967 227.705L99.6867 229.702L56.2897 227.305C50.0167 226.958 44.4637 231.327 43.3247 237.505L35.0667 282.299C34.8427 283.515 34.8007 284.758 34.9417 285.986L36.2007 296.958C36.6647 301.003 39.0417 304.537 42.7027 306.087ZM156.78 306.087C145.263 310.964 124.298 317.345 99.7957 317.635L99.8197 319.635C124.634 319.341 145.856 312.885 157.56 307.929C161.971 306.061 164.735 301.85 165.27 297.186L166.529 286.214C166.693 284.789 166.643 283.348 166.383 281.937L158.125 237.143C156.804 229.975 150.361 224.906 143.083 225.308L99.6857 227.705L99.7957 229.702L143.193 227.305C149.466 226.958 155.019 231.327 156.158 237.505L164.416 282.299C164.64 283.515 164.683 284.758 164.542 285.986L163.283 296.958C162.819 301.003 160.441 304.537 156.78 306.087ZM89.7707 395.098C93.0217 395.715 96.3247 396.025 99.6337 396.025H104.521V398.025H99.6337C96.1997 398.025 92.7717 397.703 89.3977 397.063L83.0817 395.865C78.4807 394.992 74.0097 393.536 69.7787 391.529L47.9227 381.164C46.4407 380.461 45.0137 379.646 43.6547 378.727C37.8717 374.815 33.5087 369.138 31.2147 362.544L27.1557 350.876L24.1567 343.377C21.5617 336.889 20.2277 329.964 20.2277 322.976V298.495C20.2277 295.471 20.5017 292.453 21.0447 289.479L21.6937 285.927C21.7837 285.435 21.8287 284.935 21.8287 284.434V275.358C21.8287 274.388 20.9007 273.688 19.9677 273.954C19.4977 274.088 19.0057 274.122 18.5227 274.052L15.5697 273.625C12.9797 273.251 10.4657 272.321 8.30971 270.772C5.94171 269.071 4.05971 267.473 1.80171 264.908C1.17171 264.192 0.843719 263.275 0.843719 262.343C0.843719 259.669 3.43971 257.762 5.99171 258.563L10.2497 259.899C10.8187 260.078 11.3637 260.326 11.8717 260.638L21.2617 266.405C21.4957 266.549 21.7957 266.378 21.7917 266.103L19.9227 141.886V59.516L27.0037 8.23099C28.0047 0.978973 31.1987 -5.79404 36.1577 -11.18C41.2757 -16.739 48.0157 -20.541 55.4197 -22.047L74.9787 -26.025L74.9797 -26.026L89.0027 -28.901C92.6337 -29.646 96.3307 -30.021 100.037 -30.021H104.755V-28.021H100.037C96.4657 -28.021 92.9037 -27.659 89.4047 -26.942L75.3797 -24.066H75.3787L55.8177 -20.088C48.8257 -18.666 42.4617 -15.074 37.6287 -9.82498C32.9467 -4.73898 29.9307 1.65698 28.9847 8.505L21.9227 59.653V141.878L23.7917 266.073C23.8197 267.925 21.7927 269.079 20.2147 268.11L10.8247 262.342C10.4567 262.116 10.0627 261.936 9.65071 261.807L5.39272 260.471C4.12971 260.075 2.84372 261.019 2.84372 262.343C2.84372 262.81 3.00871 263.252 3.30272 263.586C5.44572 266.02 7.21071 267.519 9.47672 269.147C11.3417 270.487 13.5447 271.312 15.8557 271.646L18.8087 272.073C19.0127 272.102 19.2207 272.088 19.4187 272.031C21.6287 271.4 23.8287 273.059 23.8287 275.358V284.434C23.8287 285.055 23.7727 285.676 23.6607 286.287L23.0117 289.839C22.4897 292.695 22.2277 295.592 22.2277 298.495V322.976C22.2277 329.71 23.5127 336.382 26.0137 342.634L29.0297 350.176L33.1037 361.887C35.2557 368.074 39.3487 373.4 44.7747 377.07C46.0497 377.932 47.3887 378.697 48.7797 379.357L70.6357 389.721C74.7127 391.654 79.0207 393.059 83.4537 393.9L89.7707 395.098ZM104.283 396.042L104.656 398.007L115.952 395.865C120.553 394.992 125.024 393.535 129.255 391.528L151.111 381.164C152.593 380.461 154.02 379.646 155.379 378.727C161.162 374.815 165.525 369.138 167.819 362.544L171.878 350.876L174.877 343.376C177.472 336.888 178.806 329.964 178.806 322.976V298.495C178.806 295.471 178.532 292.453 177.989 289.479L177.34 285.927C177.25 285.434 177.205 284.935 177.205 284.434V275.358C177.205 274.388 178.133 273.688 179.066 273.954C179.536 274.088 180.028 274.122 180.511 274.052L183.464 273.625C186.054 273.251 188.568 272.32 190.724 270.771C193.092 269.07 194.974 267.473 197.232 264.908C197.862 264.192 198.19 263.275 198.19 262.343C198.19 259.669 195.594 257.762 193.042 258.563L188.784 259.899C188.215 260.078 187.67 260.326 187.162 260.638L177.772 266.405C177.538 266.549 177.238 266.378 177.242 266.103L179.111 141.886V59.516L172.03 8.23099C171.029 0.978973 167.835 -5.79404 162.876 -11.18C157.758 -16.739 151.018 -20.541 143.614 -22.047L124.055 -26.025L124.054 -26.026L104.67 -30L104.268 -28.041L123.654 -24.066H123.655L143.216 -20.088C150.208 -18.666 156.572 -15.074 161.405 -9.82498C166.087 -4.73898 169.103 1.65698 170.049 8.505L177.111 59.653V141.878L175.242 266.073C175.214 267.925 177.241 269.079 178.819 268.11L188.209 262.342C188.577 262.116 188.971 261.936 189.383 261.807L193.641 260.471C194.904 260.075 196.19 261.019 196.19 262.343C196.19 262.81 196.025 263.252 195.731 263.586C193.588 266.02 191.823 267.519 189.557 269.147C187.692 270.487 185.489 271.312 183.178 271.646L180.225 272.072C180.021 272.101 179.813 272.088 179.615 272.031C177.405 271.4 175.205 273.059 175.205 275.358V284.434C175.205 285.055 175.261 285.676 175.373 286.287L176.022 289.839C176.544 292.695 176.806 295.592 176.806 298.495V322.976C176.806 329.71 175.521 336.382 173.02 342.634L170.004 350.176L165.93 361.887C163.778 368.074 159.685 373.4 154.259 377.07C152.984 377.932 151.645 378.696 150.254 379.356L128.398 389.721C124.321 391.654 120.013 393.059 115.58 393.9L104.283 396.042Z" fill="#FFEA30"/>
<path d="M420.662 471.501C427.429 469.827 438.959 467.812 451.487 467.224C464.032 466.635 477.473 467.484 488.122 471.467L488.823 469.594C477.8 465.472 464.043 464.633 451.394 465.226C438.728 465.82 427.068 467.857 420.182 469.56L420.662 471.501ZM522.564 488.55C522.803 489.982 522.838 492.166 522.071 494.012C521.68 494.952 521.065 495.843 520.127 496.473C519.182 497.108 517.99 497.424 516.548 497.348C514.554 497.243 512.833 495.895 511.37 494.274C509.882 492.625 508.475 490.482 507.149 488.43C507.061 488.294 506.973 488.158 506.886 488.023C505.635 486.085 504.457 484.259 503.289 482.879C502.668 482.145 502.083 481.579 501.533 481.202C500.985 480.827 500.524 480.674 500.125 480.674C497.045 480.674 493.723 478.531 491.272 475.58C488.794 472.596 487.011 468.564 487.19 464.44L489.188 464.527C489.035 468.036 490.566 471.598 492.811 474.302C495.083 477.038 497.895 478.674 500.125 478.674C501.053 478.674 501.905 479.032 502.664 479.552C503.42 480.07 504.136 480.784 504.816 481.587C506.071 483.071 507.318 485.004 508.544 486.904C508.639 487.051 508.734 487.198 508.829 487.345C510.17 489.42 511.493 491.425 512.855 492.934C514.242 494.471 515.493 495.29 516.653 495.351C517.734 495.408 518.482 495.17 519.012 494.813C519.55 494.452 519.946 493.914 520.224 493.244C520.795 491.87 520.795 490.104 520.591 488.88L522.564 488.55ZM387.3 488.55C387.061 489.982 387.026 492.166 387.793 494.012C388.184 494.952 388.799 495.843 389.737 496.473C390.682 497.108 391.874 497.424 393.316 497.348C395.31 497.243 397.031 495.895 398.494 494.274C399.982 492.625 401.39 490.482 402.716 488.43C402.804 488.294 402.892 488.158 402.979 488.023C404.23 486.085 405.408 484.259 406.576 482.879C407.197 482.145 407.781 481.579 408.331 481.202C408.879 480.827 409.341 480.674 409.74 480.674C412.82 480.674 416.141 478.531 418.592 475.58C421.07 472.596 422.853 468.564 422.674 464.44L420.676 464.527C420.829 468.036 419.299 471.598 417.054 474.302C414.782 477.038 411.97 478.674 409.74 478.674C408.812 478.674 407.96 479.032 407.201 479.552C406.445 480.07 405.729 480.784 405.049 481.587C403.794 483.071 402.546 485.004 401.32 486.904C401.225 487.051 401.131 487.198 401.036 487.345C399.695 489.42 398.372 491.425 397.01 492.934C395.623 494.471 394.371 495.29 393.211 495.351C392.13 495.408 391.383 495.17 390.853 494.813C390.315 494.452 389.918 493.914 389.64 493.244C389.069 491.87 389.069 490.104 389.273 488.88L387.3 488.55ZM510.32 777.831C510.32 776.737 509.286 775.901 508.182 776.138C496.06 778.745 473.137 782.241 454.276 782.948L454.201 780.95C472.924 780.249 495.729 776.769 507.761 774.182C510.076 773.684 512.32 775.428 512.32 777.831V836.507C512.32 838.149 511.237 839.61 509.632 840.045C498.516 843.059 474.453 848.175 452.83 848.175V846.175C474.205 846.175 498.076 841.106 509.108 838.115C509.821 837.922 510.32 837.267 510.32 836.507V777.831ZM398.92 777.831C398.92 776.737 399.954 775.901 401.058 776.138C413.18 778.745 436.102 782.241 454.963 782.948L455.038 780.95C436.315 780.249 413.51 776.769 401.478 774.182C399.163 773.684 396.92 775.428 396.92 777.831V836.507C396.92 838.149 398.003 839.61 399.608 840.045C410.724 843.059 434.786 848.175 456.409 848.175V846.175C435.034 846.175 411.163 841.106 400.131 838.115C399.418 837.922 398.92 837.267 398.92 836.507V777.831ZM524.654 688.187C525.736 687.833 526.849 688.639 526.849 689.778V781.221C526.849 782.792 524.761 783.594 523.831 782.107C519.994 775.968 513.73 763.013 512.124 748.202L512.118 748.148V693.499C512.118 692.775 512.584 692.133 513.272 691.908L524.654 688.187ZM524.849 779.931V690.228L514.118 693.736V748.04C515.6 761.601 521.102 773.601 524.849 779.931ZM524.212 579.089C524.642 577.133 527.521 577.446 527.521 579.449V673.883C527.521 675.242 526.776 676.491 525.58 677.136L517.071 681.727C514.608 683.056 511.619 681.271 511.619 678.473V636.822C511.619 636.555 511.648 636.289 511.705 636.029L524.212 579.089ZM525.521 673.883V582.451L513.658 636.458C513.632 636.578 513.619 636.7 513.619 636.822V678.473C513.619 679.757 514.991 680.577 516.121 679.967L524.63 675.376C525.179 675.08 525.521 674.507 525.521 673.883ZM525.201 757.764L512.615 748.998L513.759 747.357L526.344 756.123L525.201 757.764ZM384.572 688.185C383.49 687.831 382.378 688.637 382.378 689.776V781.219C382.378 782.79 384.466 783.592 385.396 782.105C389.233 775.966 395.496 763.011 397.102 748.2L397.108 748.146V693.497C397.108 692.773 396.642 692.131 395.954 691.906L384.572 688.185ZM384.378 779.929V690.225L395.108 693.733V748.037C393.626 761.598 388.125 773.599 384.378 779.929ZM385.02 579.087C384.59 577.131 381.711 577.443 381.711 579.446V673.88C381.711 675.239 382.456 676.489 383.652 677.134L392.162 681.724C394.625 683.053 397.613 681.269 397.613 678.471V636.819C397.613 636.552 397.584 636.286 397.527 636.026L385.02 579.087ZM383.711 673.88V582.448L395.574 636.455C395.6 636.575 395.613 636.697 395.613 636.819V678.471C395.613 679.755 394.241 680.574 393.111 679.964L384.602 675.374C384.053 675.078 383.711 674.504 383.711 673.88ZM384.032 757.76L396.617 748.994L395.474 747.353L382.889 756.119L384.032 757.76ZM511.713 546.529C500.196 541.652 479.231 535.271 454.729 534.981L454.752 532.981C479.566 533.275 500.789 539.731 512.493 544.687C516.904 546.555 519.667 550.766 520.202 555.43L521.461 566.402C521.625 567.827 521.576 569.268 521.316 570.679L513.058 615.473C511.737 622.641 505.294 627.71 498.016 627.308L454.619 624.911L454.729 622.914L498.126 625.311C504.399 625.658 509.952 621.289 511.091 615.111L519.349 570.317C519.573 569.101 519.615 567.858 519.474 566.63L518.215 555.658C517.751 551.613 515.374 548.079 511.713 546.529ZM397.636 546.529C409.153 541.652 430.118 535.271 454.62 534.981L454.596 532.981C429.782 533.275 408.56 539.731 396.856 544.687C392.445 546.555 389.681 550.766 389.146 555.43L387.887 566.402C387.723 567.827 387.773 569.268 388.033 570.679L396.291 615.473C397.612 622.641 404.055 627.71 411.333 627.308L454.73 624.911L454.62 622.914L411.223 625.311C404.95 625.658 399.397 621.289 398.258 615.111L390 570.317C389.776 569.101 389.733 567.858 389.874 566.63L391.133 555.658C391.597 551.613 393.975 548.079 397.636 546.529ZM464.645 457.518C461.394 456.901 458.091 456.591 454.782 456.591H449.895V454.591H454.782C458.216 454.591 461.644 454.913 465.018 455.553L471.334 456.751C475.935 457.624 480.406 459.08 484.637 461.087L506.493 471.452C507.975 472.155 509.402 472.97 510.761 473.889C516.544 477.801 520.907 483.478 523.201 490.072L527.26 501.74L530.259 509.239C532.854 515.727 534.188 522.652 534.188 529.64V554.121C534.188 557.145 533.914 560.163 533.371 563.137L532.722 566.689C532.632 567.181 532.587 567.681 532.587 568.182V577.258C532.587 578.228 533.515 578.928 534.448 578.662C534.918 578.528 535.41 578.494 535.893 578.564L538.846 578.991C541.436 579.365 543.95 580.295 546.106 581.844C548.474 583.545 550.356 585.143 552.614 587.708C553.244 588.424 553.572 589.341 553.572 590.273C553.572 592.947 550.976 594.854 548.424 594.053L544.166 592.717C543.597 592.538 543.052 592.29 542.544 591.978L533.154 586.211C532.92 586.067 532.62 586.238 532.624 586.513L534.493 710.73V793.1L527.412 844.385C526.411 851.637 523.217 858.41 518.258 863.796C513.14 869.355 506.4 873.157 498.996 874.663L479.437 878.641L479.436 878.642L465.413 881.517C461.782 882.262 458.085 882.637 454.379 882.637H449.661V880.637H454.379C457.95 880.637 461.512 880.275 465.011 879.558L479.036 876.682H479.037L498.598 872.704C505.59 871.282 511.954 867.69 516.787 862.441C521.469 857.355 524.485 850.959 525.431 844.111L532.493 792.963V710.738L530.624 586.543C530.596 584.691 532.623 583.537 534.201 584.506L543.591 590.274C543.959 590.5 544.353 590.68 544.765 590.809L549.023 592.145C550.286 592.541 551.572 591.597 551.572 590.273C551.572 589.806 551.407 589.364 551.113 589.03C548.97 586.596 547.205 585.097 544.939 583.469C543.074 582.129 540.871 581.304 538.56 580.97L535.607 580.543C535.403 580.514 535.195 580.528 534.997 580.585C532.787 581.216 530.587 579.557 530.587 577.258V568.182C530.587 567.561 530.643 566.94 530.755 566.329L531.404 562.777C531.926 559.921 532.188 557.024 532.188 554.121V529.64C532.188 522.906 530.903 516.234 528.402 509.982L525.386 502.44L521.312 490.729C519.16 484.542 515.067 479.216 509.641 475.546C508.366 474.684 507.027 473.919 505.636 473.259L483.78 462.895C479.703 460.962 475.395 459.557 470.962 458.716L464.645 457.518ZM450.133 456.574L449.76 454.609L438.464 456.751C433.863 457.624 429.392 459.081 425.161 461.088L403.305 471.452C401.823 472.155 400.396 472.97 399.037 473.889C393.254 477.801 388.891 483.478 386.597 490.072L382.538 501.74L379.539 509.24C376.944 515.728 375.61 522.652 375.61 529.64V554.121C375.61 557.145 375.884 560.163 376.427 563.137L377.076 566.689C377.166 567.182 377.211 567.681 377.211 568.182V577.258C377.211 578.228 376.283 578.928 375.35 578.662C374.88 578.528 374.388 578.494 373.905 578.564L370.952 578.991C368.362 579.365 365.848 580.296 363.692 581.845C361.324 583.546 359.442 585.143 357.184 587.708C356.554 588.424 356.226 589.341 356.226 590.273C356.226 592.947 358.822 594.854 361.374 594.053L365.632 592.717C366.201 592.538 366.746 592.29 367.254 591.978L376.644 586.211C376.878 586.067 377.178 586.238 377.174 586.513L375.305 710.73V793.1L382.386 844.385C383.387 851.637 386.581 858.41 391.54 863.796C396.658 869.355 403.398 873.157 410.802 874.663L430.361 878.641L430.362 878.642L449.746 882.616L450.148 880.657L430.762 876.682H430.761L411.2 872.704C404.208 871.282 397.844 867.69 393.011 862.441C388.329 857.355 385.313 850.959 384.367 844.111L377.305 792.963V710.738L379.174 586.543C379.202 584.691 377.175 583.537 375.597 584.506L366.207 590.274C365.839 590.5 365.445 590.68 365.033 590.809L360.775 592.145C359.512 592.541 358.226 591.597 358.226 590.273C358.226 589.806 358.391 589.364 358.685 589.03C360.828 586.596 362.593 585.097 364.859 583.469C366.724 582.129 368.927 581.304 371.238 580.97L374.191 580.544C374.395 580.515 374.603 580.528 374.801 580.585C377.011 581.216 379.211 579.557 379.211 577.258V568.182C379.211 567.561 379.155 566.94 379.043 566.329L378.394 562.777C377.872 559.921 377.61 557.024 377.61 554.121V529.64C377.61 522.906 378.895 516.234 381.396 509.982L384.412 502.44L388.486 490.729C390.638 484.542 394.731 479.216 400.157 475.546C401.432 474.684 402.771 473.92 404.162 473.26L426.018 462.895C430.095 460.962 434.403 459.557 438.836 458.716L450.133 456.574Z" fill="#FFEA30"/>
<path d="M911.329 617.342C918.096 615.668 929.626 613.653 942.154 613.065C954.699 612.476 968.14 613.325 978.789 617.308L979.49 615.435C968.467 611.313 954.71 610.474 942.061 611.067C929.395 611.661 917.735 613.698 910.849 615.401L911.329 617.342ZM1013.23 634.391C1013.47 635.823 1013.5 638.007 1012.74 639.853C1012.35 640.793 1011.73 641.684 1010.79 642.314C1009.85 642.949 1008.66 643.265 1007.21 643.189C1005.22 643.084 1003.5 641.736 1002.04 640.115C1000.55 638.466 999.142 636.323 997.816 634.271C997.728 634.135 997.64 633.999 997.553 633.864C996.302 631.926 995.124 630.1 993.956 628.72C993.335 627.986 992.75 627.42 992.2 627.043C991.652 626.668 991.191 626.515 990.792 626.515C987.712 626.515 984.39 624.372 981.939 621.421C979.461 618.437 977.678 614.405 977.857 610.281L979.855 610.368C979.702 613.877 981.233 617.439 983.478 620.143C985.75 622.879 988.562 624.515 990.792 624.515C991.72 624.515 992.572 624.873 993.331 625.393C994.087 625.911 994.803 626.625 995.483 627.428C996.738 628.912 997.985 630.845 999.211 632.745C999.306 632.892 999.401 633.039 999.496 633.186C1000.84 635.261 1002.16 637.266 1003.52 638.775C1004.91 640.312 1006.16 641.131 1007.32 641.192C1008.4 641.249 1009.15 641.011 1009.68 640.654C1010.22 640.293 1010.61 639.755 1010.89 639.085C1011.46 637.711 1011.46 635.945 1011.26 634.721L1013.23 634.391ZM877.967 634.391C877.728 635.823 877.693 638.007 878.46 639.853C878.851 640.793 879.466 641.684 880.404 642.314C881.349 642.949 882.541 643.265 883.983 643.189C885.977 643.084 887.698 641.736 889.161 640.115C890.649 638.466 892.057 636.323 893.383 634.271C893.471 634.135 893.559 633.999 893.646 633.864C894.897 631.926 896.075 630.1 897.243 628.72C897.864 627.986 898.448 627.42 898.998 627.043C899.546 626.668 900.008 626.515 900.407 626.515C903.487 626.515 906.808 624.372 909.259 621.421C911.737 618.437 913.52 614.405 913.341 610.281L911.343 610.368C911.496 613.877 909.966 617.439 907.721 620.143C905.449 622.879 902.637 624.515 900.407 624.515C899.479 624.515 898.627 624.873 897.868 625.393C897.112 625.911 896.396 626.625 895.716 627.428C894.461 628.912 893.213 630.845 891.987 632.745C891.892 632.892 891.798 633.039 891.703 633.186C890.362 635.261 889.039 637.266 887.677 638.775C886.29 640.312 885.038 641.131 883.878 641.192C882.797 641.249 882.05 641.011 881.52 640.654C880.982 640.293 880.585 639.755 880.307 639.085C879.736 637.711 879.736 635.945 879.94 634.721L877.967 634.391ZM1000.99 923.672C1000.99 922.578 999.953 921.742 998.849 921.979C986.727 924.586 963.804 928.082 944.943 928.789L944.868 926.791C963.591 926.09 986.396 922.61 998.428 920.023C1000.74 919.525 1002.99 921.269 1002.99 923.672V982.348C1002.99 983.99 1001.9 985.451 1000.3 985.886C989.183 988.9 965.12 994.016 943.497 994.016V992.016C964.872 992.016 988.743 986.947 999.775 983.956C1000.49 983.763 1000.99 983.108 1000.99 982.348V923.672ZM889.587 923.672C889.587 922.578 890.621 921.742 891.725 921.979C903.847 924.586 926.769 928.082 945.63 928.789L945.705 926.791C926.982 926.09 904.177 922.61 892.145 920.023C889.83 919.525 887.587 921.269 887.587 923.672V982.348C887.587 983.99 888.67 985.451 890.275 985.886C901.391 988.9 925.453 994.016 947.076 994.016V992.016C925.701 992.016 901.83 986.947 890.798 983.956C890.085 983.763 889.587 983.108 889.587 982.348V923.672ZM1015.32 834.028C1016.4 833.674 1017.52 834.48 1017.52 835.619V927.062C1017.52 928.633 1015.43 929.435 1014.5 927.948C1010.66 921.809 1004.4 908.854 1002.79 894.043L1002.78 893.989V839.34C1002.78 838.616 1003.25 837.974 1003.94 837.749L1015.32 834.028ZM1015.52 925.772V836.069L1004.78 839.577V893.881C1006.27 907.442 1011.77 919.442 1015.52 925.772ZM1014.88 724.93C1015.31 722.974 1018.19 723.287 1018.19 725.29V819.724C1018.19 821.083 1017.44 822.332 1016.25 822.977L1007.74 827.568C1005.27 828.897 1002.29 827.112 1002.29 824.314V782.663C1002.29 782.396 1002.31 782.13 1002.37 781.87L1014.88 724.93ZM1016.19 819.724V728.292L1004.32 782.299C1004.3 782.419 1004.29 782.541 1004.29 782.663V824.314C1004.29 825.598 1005.66 826.418 1006.79 825.808L1015.3 821.217C1015.85 820.921 1016.19 820.348 1016.19 819.724ZM1015.87 903.605L1003.28 894.839L1004.43 893.198L1017.01 901.964L1015.87 903.605ZM875.239 834.026C874.157 833.672 873.045 834.478 873.045 835.617V927.06C873.045 928.631 875.133 929.433 876.063 927.946C879.9 921.807 886.163 908.852 887.769 894.041L887.775 893.987V839.338C887.775 838.614 887.309 837.972 886.621 837.747L875.239 834.026ZM875.045 925.77V836.066L885.775 839.574V893.878C884.293 907.439 878.792 919.44 875.045 925.77ZM875.687 724.928C875.257 722.972 872.378 723.284 872.378 725.287V819.721C872.378 821.08 873.123 822.33 874.319 822.975L882.829 827.565C885.292 828.894 888.28 827.11 888.28 824.312V782.66C888.28 782.393 888.251 782.127 888.194 781.867L875.687 724.928ZM874.378 819.721V728.289L886.241 782.296C886.267 782.416 886.28 782.538 886.28 782.66V824.312C886.28 825.596 884.908 826.415 883.778 825.805L875.269 821.215C874.72 820.919 874.378 820.345 874.378 819.721ZM874.699 903.601L887.284 894.835L886.141 893.194L873.556 901.96L874.699 903.601ZM1002.38 692.37C990.863 687.493 969.898 681.112 945.396 680.822L945.419 678.822C970.233 679.116 991.456 685.572 1003.16 690.528C1007.57 692.396 1010.33 696.607 1010.87 701.271L1012.13 712.243C1012.29 713.668 1012.24 715.109 1011.98 716.52L1003.72 761.314C1002.4 768.482 995.961 773.551 988.683 773.149L945.286 770.752L945.396 768.755L988.793 771.152C995.066 771.499 1000.62 767.13 1001.76 760.952L1010.02 716.158C1010.24 714.942 1010.28 713.699 1010.14 712.471L1008.88 701.499C1008.42 697.454 1006.04 693.92 1002.38 692.37ZM888.303 692.37C899.82 687.493 920.785 681.112 945.287 680.822L945.263 678.822C920.449 679.116 899.227 685.572 887.523 690.528C883.112 692.396 880.348 696.607 879.813 701.271L878.554 712.243C878.39 713.668 878.44 715.109 878.7 716.52L886.958 761.314C888.279 768.482 894.722 773.551 902 773.149L945.397 770.752L945.287 768.755L901.89 771.152C895.617 771.499 890.064 767.13 888.925 760.952L880.667 716.158C880.443 714.942 880.4 713.699 880.541 712.471L881.8 701.499C882.264 697.454 884.642 693.92 888.303 692.37ZM955.312 603.359C952.061 602.742 948.758 602.432 945.449 602.432H940.562V600.432H945.449C948.883 600.432 952.311 600.754 955.685 601.394L962.001 602.592C966.602 603.465 971.073 604.921 975.304 606.928L997.16 617.293C998.642 617.996 1000.07 618.811 1001.43 619.73C1007.21 623.642 1011.57 629.319 1013.87 635.913L1017.93 647.581L1020.93 655.08C1023.52 661.568 1024.85 668.493 1024.85 675.481V699.962C1024.85 702.986 1024.58 706.004 1024.04 708.978L1023.39 712.53C1023.3 713.022 1023.25 713.522 1023.25 714.023V723.099C1023.25 724.069 1024.18 724.769 1025.11 724.503C1025.58 724.369 1026.08 724.335 1026.56 724.405L1029.51 724.832C1032.1 725.206 1034.62 726.136 1036.77 727.685C1039.14 729.386 1041.02 730.984 1043.28 733.549C1043.91 734.265 1044.24 735.182 1044.24 736.114C1044.24 738.788 1041.64 740.695 1039.09 739.894L1034.83 738.558C1034.26 738.379 1033.72 738.131 1033.21 737.819L1023.82 732.052C1023.59 731.908 1023.29 732.079 1023.29 732.354L1025.16 856.571V938.941L1018.08 990.226C1017.08 997.478 1013.88 1004.25 1008.92 1009.64C1003.81 1015.2 997.067 1019 989.663 1020.5L970.104 1024.48L970.103 1024.48L956.08 1027.36C952.449 1028.1 948.752 1028.48 945.046 1028.48H940.328V1026.48H945.046C948.617 1026.48 952.179 1026.12 955.678 1025.4L969.703 1022.52H969.704L989.265 1018.54C996.257 1017.12 1002.62 1013.53 1007.45 1008.28C1012.14 1003.2 1015.15 996.8 1016.1 989.952L1023.16 938.804V856.579L1021.29 732.384C1021.26 730.532 1023.29 729.378 1024.87 730.347L1034.26 736.115C1034.63 736.341 1035.02 736.521 1035.43 736.65L1039.69 737.986C1040.95 738.382 1042.24 737.438 1042.24 736.114C1042.24 735.647 1042.07 735.205 1041.78 734.871C1039.64 732.437 1037.87 730.938 1035.61 729.31C1033.74 727.97 1031.54 727.145 1029.23 726.811L1026.27 726.384C1026.07 726.355 1025.86 726.369 1025.66 726.426C1023.45 727.057 1021.25 725.398 1021.25 723.099V714.023C1021.25 713.402 1021.31 712.781 1021.42 712.17L1022.07 708.618C1022.59 705.762 1022.85 702.865 1022.85 699.962V675.481C1022.85 668.747 1021.57 662.075 1019.07 655.823L1016.05 648.281L1011.98 636.57C1009.83 630.383 1005.73 625.057 1000.31 621.387C999.033 620.525 997.694 619.76 996.303 619.1L974.447 608.736C970.37 606.803 966.062 605.398 961.629 604.557L955.312 603.359ZM940.8 602.415L940.427 600.45L929.131 602.592C924.53 603.465 920.059 604.922 915.828 606.929L893.972 617.293C892.49 617.996 891.063 618.811 889.704 619.73C883.921 623.642 879.558 629.319 877.264 635.913L873.205 647.581L870.206 655.081C867.611 661.569 866.277 668.493 866.277 675.481V699.962C866.277 702.986 866.551 706.004 867.094 708.978L867.743 712.53C867.833 713.023 867.878 713.522 867.878 714.023V723.099C867.878 724.069 866.95 724.769 866.017 724.503C865.547 724.369 865.055 724.335 864.572 724.405L861.619 724.832C859.029 725.206 856.515 726.137 854.359 727.686C851.991 729.387 850.109 730.984 847.851 733.549C847.221 734.265 846.893 735.182 846.893 736.114C846.893 738.788 849.489 740.695 852.041 739.894L856.299 738.558C856.868 738.379 857.413 738.131 857.921 737.819L867.311 732.052C867.545 731.908 867.845 732.079 867.841 732.354L865.972 856.571V938.941L873.053 990.226C874.054 997.478 877.248 1004.25 882.207 1009.64C887.325 1015.2 894.065 1019 901.469 1020.5L921.028 1024.48L921.029 1024.48L940.413 1028.46L940.815 1026.5L921.429 1022.52H921.428L901.867 1018.54C894.875 1017.12 888.511 1013.53 883.678 1008.28C878.996 1003.2 875.98 996.8 875.034 989.952L867.972 938.804V856.579L869.841 732.384C869.869 730.532 867.842 729.378 866.264 730.347L856.874 736.115C856.506 736.341 856.112 736.521 855.7 736.65L851.442 737.986C850.179 738.382 848.893 737.438 848.893 736.114C848.893 735.647 849.058 735.205 849.352 734.871C851.495 732.437 853.26 730.938 855.526 729.31C857.391 727.97 859.594 727.145 861.905 726.811L864.858 726.385C865.062 726.356 865.27 726.369 865.468 726.426C867.678 727.057 869.878 725.398 869.878 723.099V714.023C869.878 713.402 869.822 712.781 869.71 712.17L869.061 708.618C868.539 705.762 868.277 702.865 868.277 699.962V675.481C868.277 668.747 869.562 662.075 872.063 655.823L875.079 648.281L879.153 636.57C881.305 630.383 885.398 625.057 890.824 621.387C892.099 620.525 893.438 619.761 894.829 619.101L916.685 608.736C920.762 606.803 925.07 605.398 929.503 604.557L940.8 602.415Z" fill="#FFEA30"/>
</svg>
