<svg width="48" height="49" viewBox="0 0 48 49" fill="none" xmlns="http://www.w3.org/2000/svg">
<g clip-path="url(#clip0_1_906)">
<path fill-rule="evenodd" clip-rule="evenodd" d="M26.9474 15.65C26.9474 12.6953 29.3426 10.3 32.2974 10.3C35.2521 10.3 37.6474 12.6953 37.6474 15.65C37.6474 18.6048 35.2521 21 32.2974 21C29.3426 21 26.9474 18.6048 26.9474 15.65ZM32.2974 8C28.0724 8 24.6474 11.425 24.6474 15.65C24.6474 19.875 28.0724 23.3 32.2974 23.3C36.5223 23.3 39.9474 19.875 39.9474 15.65C39.9474 11.425 36.5223 8 32.2974 8ZM22.7974 27.5H23.5332L23.8415 28.1681L32.8415 47.6681L33.5947 49.3H31.7974H10.7974H10.0616L9.75318 48.632L0.7532 29.132L0 27.5H1.79735H22.7974ZM27.2308 41L25.0616 36.3H20.8255L22.9947 41H27.2308ZM28.2923 43.3H24.0563L25.7639 47H30L28.2923 43.3ZM20.4616 41L18.2923 36.3H13.8255L15.9947 41H20.4616ZM17.0563 43.3H21.5231L23.2308 47H18.7639L17.0563 43.3ZM13.4616 41L11.2923 36.3H6.5947L8.76393 41H13.4616ZM9.82548 43.3H14.5231L16.2308 47H11.5332L9.82548 43.3ZM22.0616 29.8L24 34H19.7639L17.8255 29.8H22.0616ZM15.2923 29.8L17.2308 34H12.7639L10.8255 29.8H15.2923ZM8.29231 29.8L10.2308 34H5.53316L3.5947 29.8H8.29231ZM20.2224 16C21.0094 16 21.6474 15.362 21.6474 14.575C21.6474 13.788 21.0094 13.15 20.2224 13.15C19.4354 13.15 18.7974 13.788 18.7974 14.575C18.7974 15.362 19.4354 16 20.2224 16ZM39.0337 25.0307C39.6527 25.5167 39.7605 26.4125 39.2745 27.0315C38.7884 27.6505 37.8926 27.7583 37.2736 27.2723C36.6546 26.7862 36.5468 25.8904 37.0329 25.2714C37.5189 24.6524 38.4147 24.5446 39.0337 25.0307ZM13.2224 20C14.0094 20 14.6474 19.362 14.6474 18.575C14.6474 17.788 14.0094 17.15 13.2224 17.15C12.4354 17.15 11.7974 17.788 11.7974 18.575C11.7974 19.362 12.4354 20 13.2224 20ZM37.8579 33.0072C38.4769 33.4933 38.5847 34.3891 38.0987 35.008C37.6126 35.627 36.7168 35.7348 36.0979 35.2488C35.4789 34.7628 35.3711 33.867 35.8571 33.248C36.3431 32.629 37.2389 32.5212 37.8579 33.0072ZM6.22235 24C7.00936 24 7.64735 23.362 7.64735 22.575C7.64735 21.788 7.00936 21.15 6.22235 21.15C5.43535 21.15 4.79735 21.788 4.79735 22.575C4.79735 23.362 5.43535 24 6.22235 24ZM36.6782 40.9838C37.2972 41.4698 37.405 42.3656 36.919 42.9846C36.433 43.6036 35.5372 43.7114 34.9182 43.2254C34.2992 42.7394 34.1914 41.8436 34.6774 41.2246C35.1634 40.6056 36.0592 40.4978 36.6782 40.9838Z" fill="#4E66FF"/>
</g>
<defs>
<clipPath id="clip0_1_906">
<rect width="48" height="49" fill="white"/>
</clipPath>
</defs>
</svg>
