<svg width="1440" height="691" viewBox="0 0 1440 691" fill="none" xmlns="http://www.w3.org/2000/svg">
<g clip-path="url(#clip0_1_1238)">
<path opacity="0.3" d="M657.578 550.469L438.584 295.333C425.371 279.835 408.949 265.996 389.973 254.278L657.578 550.469ZM3 3L87.6523 38.57C117.985 51.3154 151.782 59.0769 186.672 61.3102L768.291 98.5356L3 3ZM326.638 140.443L1386.22 575.164L326.638 140.443ZM1088.59 549.878L670.794 374.327C668.666 373.433 666.284 375.168 667.516 376.716L758.595 491.211C765.346 499.696 775.035 506.741 786.705 511.643L1088.59 549.878ZM698.014 225.196L663.129 210.334L698.014 225.196ZM700.115 163.888L701.631 174.296L700.115 163.888ZM729.505 186.162L701.786 174.352C701.671 174.304 701.524 174.332 701.457 174.415L698.901 177.594C698.834 177.677 698.872 177.784 698.986 177.833L726.706 189.642L729.505 186.162ZM726.993 189.872L700.396 178.542C700.281 178.494 700.134 178.522 700.067 178.605L697.511 181.784C697.444 181.867 697.482 181.974 697.597 182.023L723.439 193.033L726.993 189.872ZM723.845 193.201L698.977 182.606C698.862 182.557 698.715 182.585 698.649 182.668L696.092 185.847C696.025 185.931 696.063 186.037 696.178 186.086L721.046 196.681L723.845 193.201ZM720.913 196.848L697.712 186.964C697.598 186.915 697.451 186.943 697.384 187.026L694.827 190.205C694.761 190.288 694.799 190.395 694.913 190.444L718.115 200.328L720.913 196.848ZM718.052 200.412L696.729 191.33C696.615 191.281 696.468 191.309 696.401 191.392L693.844 194.571C693.778 194.655 693.816 194.762 693.93 194.81L715.247 203.892L718.052 200.412ZM715.184 203.972L695.864 195.744C695.749 195.695 695.602 195.723 695.535 195.806L692.979 198.985C692.912 199.068 692.95 199.175 693.065 199.224L712.378 207.453L715.184 203.972ZM709.454 211.099L693.633 204.36C693.518 204.312 693.371 204.34 693.304 204.423L690.748 207.602C690.68 207.685 690.719 207.792 690.834 207.841L706.655 214.579L709.454 211.099ZM706.655 214.58L692.895 208.72C692.781 208.671 692.634 208.699 692.567 208.783L690.01 211.961C689.943 212.044 689.982 212.152 690.096 212.2L703.85 218.061L706.655 214.58ZM703.787 218.143L691.505 212.911C691.391 212.862 691.244 212.89 691.176 212.974L688.62 216.152C688.553 216.235 688.591 216.342 688.706 216.391L700.987 221.623L703.787 218.143ZM700.923 221.705L690.017 217.059C689.903 217.01 689.756 217.038 689.689 217.122L687.132 220.3C687.065 220.383 687.103 220.49 687.218 220.539L698.124 225.185L700.923 221.705ZM712.315 207.536L694.44 199.92C694.325 199.871 694.178 199.899 694.111 199.983L691.555 203.161C691.488 203.245 691.526 203.352 691.641 203.401L709.517 211.016L712.315 207.536ZM408.596 394.502L388.203 369.101L408.596 394.502ZM324.355 395.985L338.656 397.097L324.355 395.985ZM354.932 417.396L338.728 397.211C338.661 397.128 338.7 397.021 338.814 396.972L343.184 395.114C343.299 395.065 343.446 395.093 343.512 395.177L359.717 415.361L354.932 417.396ZM360.034 415.565L344.488 396.199C344.421 396.116 344.459 396.008 344.574 395.96L348.944 394.102C349.059 394.053 349.206 394.081 349.272 394.165L364.38 412.984L360.034 415.565ZM364.612 413.278L350.074 395.169C350.007 395.086 350.046 394.979 350.161 394.93L354.53 393.072C354.644 393.023 354.791 393.051 354.858 393.135L369.396 411.243L364.612 413.278ZM369.625 411.148L356.063 394.254C355.996 394.171 356.035 394.064 356.149 394.015L360.519 392.157C360.634 392.108 360.781 392.136 360.847 392.22L374.41 409.114L369.625 411.148ZM374.522 409.064L362.06 393.541C361.992 393.458 362.032 393.351 362.146 393.302L366.515 391.444C366.63 391.395 366.777 391.424 366.844 391.507L379.306 407.03L374.522 409.064ZM379.423 406.98L368.131 392.915C368.065 392.832 368.104 392.724 368.218 392.676L372.587 390.818C372.702 390.769 372.849 390.797 372.916 390.881L384.207 404.945L379.423 406.98ZM389.218 402.812L379.971 391.294C379.904 391.211 379.943 391.104 380.057 391.055L384.427 389.197C384.542 389.148 384.689 389.176 384.756 389.26L394.002 400.778L389.218 402.812ZM394.001 400.781L385.96 390.764C385.893 390.681 385.932 390.574 386.046 390.525L390.416 388.667C390.53 388.618 390.677 388.646 390.744 388.73L398.786 398.747L394.001 400.781ZM398.902 398.697L391.724 389.755C391.657 389.671 391.695 389.564 391.81 389.516L396.18 387.657C396.294 387.609 396.441 387.637 396.508 387.72L403.687 396.663L398.902 398.697ZM403.796 396.613L397.421 388.672C397.354 388.589 397.393 388.482 397.507 388.433L401.877 386.575C401.991 386.527 402.138 386.555 402.205 386.638L408.58 394.579L403.796 396.613ZM384.321 404.898L373.872 391.881C373.805 391.798 373.843 391.691 373.958 391.642L378.328 389.784C378.442 389.735 378.589 389.763 378.656 389.846L389.106 402.863L384.321 404.898ZM848.823 498.793L927.39 531.808L848.823 498.793ZM939.941 537.078L1013.93 568.168L939.941 537.078ZM932.784 552.867L947.287 524.12C947.336 524.018 947.504 523.972 947.63 524.028L1009.99 550.23C1010.06 550.255 1010.1 550.301 1010.1 550.352L1018.7 588.967L932.784 552.867ZM823.057 506.653L870.225 491.478C870.301 491.456 870.378 491.459 870.448 491.487L936.953 519.43C937.065 519.481 937.107 519.583 937.044 519.664L917.287 546.248L823.057 506.653ZM944.201 493.891L932.987 508.027C932.917 508.111 932.959 508.217 933.071 508.266L960.67 519.863C960.81 519.919 960.992 519.863 961.027 519.746L965.694 503.089L944.201 493.891ZM701.487 544.415L799.123 513.493C799.193 513.473 799.277 513.473 799.34 513.503L858.289 538.269C858.429 538.331 858.45 538.473 858.331 538.549L790.819 583.458L701.487 544.415ZM794.128 515.413L854.357 540.719L794.128 515.413ZM870.134 547.348L906.136 562.475L870.134 547.348ZM814.955 591.875L874.121 544.868C874.198 544.807 874.324 544.792 874.422 544.833L908.053 558.967C908.165 559.013 908.206 559.12 908.144 559.201L867.398 613.917L814.955 591.875ZM824.169 560.622L749.758 529.354L824.848 560.907L824.169 560.622ZM1036.81 683.057L1025.31 608.316C1025.3 608.26 1025.25 608.214 1025.19 608.184L985.982 591.712C985.828 591.646 985.633 591.722 985.626 591.854L980.721 661.529L1036.81 683.057ZM1025.77 612.919L984.982 595.393L1025.77 612.919ZM1030.95 646.626L983.065 626.503L1030.95 646.626ZM844.311 569.084L887.204 587.104L844.311 569.084ZM962.601 586.203L924.822 570.327L962.601 586.203ZM949.302 648.332L963.476 582.384C963.49 582.313 963.441 582.241 963.357 582.206L927.11 566.976C926.984 566.92 926.823 566.961 926.767 567.063L895.474 625.714L949.302 648.332ZM956.123 616.066L910.438 596.87L956.123 616.066ZM787.852 510.529L794.156 502.584C794.191 502.544 794.24 502.515 794.303 502.503L806.714 500.008C806.777 499.996 806.847 500.002 806.903 500.025L1033.86 595.393C1033.91 595.414 1033.95 595.444 1033.97 595.48L1039.39 605.485C1039.42 605.536 1039.41 605.592 1039.38 605.638L1032.51 614.288L787.852 510.529ZM863.564 489.356L867.783 484.043C867.846 483.959 867.993 483.93 868.112 483.979L1022.03 548.657C1022.15 548.702 1022.19 548.809 1022.12 548.891L1016.79 555.607L863.564 489.356ZM965.966 503.592L1006.11 520.459C1006.17 520.484 1006.21 520.525 1006.22 520.571L1014.41 545.118C1014.46 545.265 1014.24 545.388 1014.06 545.311L875.353 487.024C875.185 486.954 875.192 486.776 875.367 486.715L902.896 477.178C902.966 477.153 903.05 477.156 903.12 477.185L944.264 494.472L965.966 503.592ZM764.863 260.492L763.352 262.399C763.289 262.482 763.324 262.589 763.443 262.637L816.746 285.035C816.858 285.083 817.005 285.055 817.075 284.971L818.866 282.711L764.863 260.492ZM792.708 288.063L791.196 289.97C791.126 290.054 791.168 290.161 791.28 290.208L834.684 308.446C834.803 308.495 834.95 308.466 835.013 308.382L836.804 306.123L792.708 288.063ZM779.751 256.31L790.469 271.181L779.751 256.31ZM802.607 282.145L812.891 296.349L802.607 282.145ZM756.167 186.068L725.223 225.072L756.167 186.068ZM722.39 224.157L814.396 318.875C814.438 318.916 814.493 318.951 814.549 318.976L845.136 331.826C845.542 331.999 846.011 331.681 845.808 331.371L838.112 319.843C837.91 319.533 838.378 319.216 838.784 319.388L849.957 324.08C850.048 324.119 850.118 324.18 850.16 324.252L857.072 336.758C857.114 336.831 857.184 336.891 857.282 336.93L878.347 345.783L722.39 224.157ZM776.246 212.142L941.543 281.599C941.774 281.695 942.068 281.638 942.201 281.471L1031.03 169.497L776.246 212.142ZM882.992 222.571L914.944 339.894L882.992 222.571ZM813.304 193.201L885.56 328.216L813.304 193.201ZM917.644 346.802L922.563 361.103C922.597 361.21 922.563 361.323 922.472 361.409L919.771 363.814L917.644 346.802ZM919.61 363.753L912.698 345.073C912.642 344.921 912.866 344.797 913.048 344.877L931.79 352.995C931.909 353.046 931.986 353.132 932.014 353.23L936.562 370.68L919.61 363.753ZM855.575 316.128L948.651 353.392C948.882 353.484 949.169 353.425 949.295 353.261L1052.32 223.399L855.575 316.128ZM1006.04 374.292L998.365 390.652C998.295 390.81 998.386 390.984 998.582 391.068L1023.71 401.624L1006.04 374.292ZM1023.71 401.624L1036.99 387.273C1037.13 387.121 1037.41 387.074 1037.63 387.166L1063.79 398.158L1023.71 401.624ZM1023.71 401.624L1044.85 410.511L1023.71 401.624ZM1063.79 398.158L1091.46 409.782C1091.77 409.916 1091.78 410.248 1091.46 410.385L1068.7 420.325C1068.56 420.39 1068.37 420.391 1068.22 420.328L1044.85 410.511L1063.79 398.158ZM1063.79 398.158L1044.85 410.511L1063.79 398.158ZM1003.73 373.323L995.301 391.61C995.231 391.768 995.322 391.941 995.518 392.024L1069.07 422.929C1069.22 422.99 1069.39 422.991 1069.54 422.933L1096.92 412.093L1003.73 373.323ZM1020.55 351.476L1011.67 368.554C1011.58 368.714 1011.67 368.895 1011.87 368.981L1098.77 405.493C1098.91 405.555 1099.1 405.555 1099.25 405.493L1124.27 395.057L1020.55 351.476ZM1056.03 366.236L1041.81 381.562L1056.03 366.236ZM1090.41 380.834L1070.63 393.82L1090.41 380.834ZM1011.37 353.172L997.953 370.081C997.827 370.248 997.904 370.462 998.135 370.559L1102.41 414.375C1102.64 414.471 1102.93 414.414 1103.06 414.246L1109.24 406.465L1011.37 353.172ZM1013.28 348.423L1004.87 369.029C1004.81 369.184 1004.9 369.35 1005.09 369.431L1100.52 409.531C1100.66 409.59 1100.84 409.594 1100.98 409.539L1131.38 398.045L1013.28 348.423ZM1137.06 399.982L1137.27 394.521L1137.06 399.982ZM1022.5 327.78L1008.22 345.775C1008.09 345.942 1008.17 346.156 1008.4 346.252L1136.97 400.278C1137.2 400.375 1137.5 400.317 1137.63 400.15L1143.93 392.216L1022.5 327.78ZM1131.8 353.258L1102.39 373.098L1131.8 353.258ZM1028.76 310.53L1016.42 343.591C1016.36 343.744 1016.45 343.906 1016.64 343.985L1137.13 394.616C1137.28 394.677 1137.46 394.679 1137.6 394.621L1184.66 376.038L1028.76 310.53ZM1213.65 85.4647L1042.31 301.448C1042.18 301.615 1042.26 301.829 1042.49 301.925L1189.07 363.52C1189.3 363.617 1189.6 363.559 1189.73 363.392L1435 54.2093L1213.65 85.4647ZM1219.76 63.4909L1029.06 303.879C1028.93 304.046 1029.02 304.26 1029.24 304.357L1192.8 373.083C1193.03 373.18 1193.33 373.122 1193.46 372.955L1384.16 132.567L1219.76 63.4909ZM1029.79 304.629L1024.46 307.528C1024.19 307.679 1024.22 307.985 1024.51 308.111L1192.77 378.813C1193.1 378.95 1193.51 378.772 1193.49 378.499L1193.25 373.285L1029.79 304.629ZM1038.31 314.011L1025.48 340.574C1025.41 340.732 1025.5 340.909 1025.7 340.993L1138.13 388.237C1138.28 388.299 1138.46 388.3 1138.61 388.238L1177.21 372.376L1038.31 314.011ZM1085.56 334.169L1065.24 357.152L1085.56 334.169ZM1008.15 345.824L1016.39 343.803L1008.15 345.824ZM998.981 151.631L934.477 232.95C934.344 233.117 934.05 233.174 933.819 233.078L730.449 147.623C730.218 147.526 730.134 147.313 730.267 147.146L794.778 65.827L998.981 151.631ZM737.256 161.306L878.879 346.443C878.921 346.499 878.984 346.545 879.061 346.576L951.135 376.861C951.365 376.958 951.659 376.901 951.792 376.733L1038.35 267.624C1038.37 267.594 1038.39 267.561 1038.4 267.528L1077.39 144.316L737.256 161.306ZM737.095 161.216L937.989 245.63C938.22 245.726 938.514 245.669 938.647 245.502L1020.1 142.821L737.095 161.216ZM938.22 245.311L951.519 377.06L938.22 245.311ZM816.243 264.804L944.803 318.826C945.034 318.923 945.335 318.864 945.461 318.694L1048.06 185.2L816.243 264.804ZM835.174 289.191L946.608 336.015C946.839 336.111 947.133 336.054 947.266 335.887L1053.67 201.757L835.174 289.191ZM754.306 184.295L722.809 223.997C722.676 224.165 722.753 224.378 722.984 224.475L815.004 263.138L754.306 184.295ZM610.005 564.471L800.088 506.618C800.151 506.597 800.235 506.601 800.298 506.628L1029.51 602.944C1029.58 602.97 1029.62 603.01 1029.63 603.061L1051.6 691L610.005 564.471ZM739.908 180.873L735.346 178.931C735.235 178.883 735.088 178.911 735.018 178.994L673.453 255.541C673.386 255.624 673.239 255.652 673.125 255.603L638.724 240.948C638.61 240.899 638.572 240.793 638.638 240.709L700.204 164.162C700.27 164.079 700.232 163.972 700.117 163.924L695.941 162.144C695.827 162.096 695.679 162.124 695.613 162.207L631.472 241.955C631.405 242.038 631.444 242.146 631.558 242.194L675.523 260.924C675.637 260.972 675.784 260.944 675.851 260.861L739.992 181.113C740.062 181.029 740.02 180.922 739.908 180.873ZM347.659 424.956L344.995 421.636C344.928 421.553 344.967 421.446 345.081 421.398L450.307 376.653C450.422 376.604 450.46 376.497 450.394 376.414L430.286 351.366C430.219 351.283 430.072 351.255 429.957 351.304L324.73 396.048C324.616 396.096 324.469 396.068 324.402 395.985L321.961 392.944C321.894 392.861 321.933 392.754 322.047 392.705L431.675 346.089C431.79 346.04 431.937 346.068 432.004 346.152L457.703 378.164C457.769 378.247 457.731 378.354 457.616 378.403L347.988 425.019C347.874 425.068 347.727 425.04 347.659 424.956ZM815.214 503.189L869.756 487.654C869.826 487.634 869.903 487.639 869.966 487.665L1014.41 548.361C1014.47 548.387 1014.51 548.427 1014.53 548.473L1028.2 592.669C1028.24 592.822 1028.02 592.939 1027.84 592.863L815.179 503.503C815.004 503.43 815.025 503.243 815.214 503.189ZM810.338 308.914L816.334 316.062C816.354 316.087 816.382 316.107 816.417 316.122L834.495 323.719C834.705 323.808 834.943 323.64 834.831 323.485L829.766 316.727C829.745 316.699 829.71 316.675 829.675 316.659L810.667 308.671C810.45 308.581 810.212 308.76 810.338 308.914ZM778.848 272.545L792.813 288.018C792.834 288.04 792.862 288.059 792.897 288.073L836.902 306.564C837.112 306.652 837.343 306.487 837.231 306.332L827.345 292.572C827.324 292.542 827.289 292.518 827.247 292.501L779.17 272.297C778.946 272.205 778.708 272.391 778.848 272.545ZM764.814 260.357L749.598 244.031C749.458 243.877 749.695 243.689 749.919 243.781L807.812 268.11C807.847 268.125 807.882 268.147 807.903 268.174L819.489 282.974C819.615 283.129 819.377 283.302 819.16 283.212L764.898 260.41C764.863 260.397 764.835 260.379 764.814 260.357ZM873.1 329.248L904.352 342.379C904.45 342.42 904.52 342.484 904.562 342.56L907.465 348.262C907.542 348.416 907.311 348.556 907.115 348.474L877.899 336.197C877.822 336.166 877.759 336.119 877.717 336.063L872.771 329.483C872.652 329.328 872.89 329.159 873.1 329.248Z" stroke="#4E66FF"/>
</g>
<defs>
<clipPath id="clip0_1_1238">
<rect width="2049" height="1096" fill="white" transform="translate(-525 -405)"/>
</clipPath>
</defs>
</svg>
