<svg width="29" height="36" viewBox="0 0 29 36" fill="none" xmlns="http://www.w3.org/2000/svg">
<path fill-rule="evenodd" clip-rule="evenodd" d="M27.8808 0.304245C28.4998 0.790245 28.6076 1.68604 28.1216 2.30504C27.6356 2.92404 26.7398 3.03185 26.1208 2.54585C25.5018 2.05984 25.394 1.16404 25.88 0.545045C26.3661 -0.0739551 27.2619 -0.181755 27.8808 0.304245ZM18.1216 8.30504C18.6076 7.68604 18.4998 6.79025 17.8808 6.30424C17.2619 5.81824 16.3661 5.92604 15.88 6.54504C15.394 7.16404 15.5018 8.05984 16.1208 8.54585C16.7398 9.03185 17.6356 8.92404 18.1216 8.30504ZM28.15 31.4236H25.85V7.42365H28.15V31.4236ZM18.15 15.4236V31.4236H15.85V15.4236H18.15ZM8.15 19.4236V31.4236H5.85V19.4236H8.15ZM3.15 31.4236V23.9236H0.85V31.4236H3.15ZM0 35.5736H29V33.2736H0V35.5736ZM13.15 31.4236V21.4236H10.85V31.4236H13.15ZM23.15 31.4236V17.4236H20.85V31.4236H23.15ZM7.88085 9.30424C8.49984 9.79025 8.60764 10.686 8.12161 11.305C7.63559 11.924 6.73979 12.0318 6.12079 11.5458C5.5018 11.0598 5.394 10.164 5.88003 9.54504C6.36606 8.92604 7.26185 8.81824 7.88085 9.30424Z" fill="#4E66FF"/>
</svg>
